<?xml version="1.0" standalone="no"?>
<!DOCTYPE svg PUBLIC "-//W3C//DTD SVG 20010904//EN"
 "http://www.w3.org/TR/2001/REC-SVG-20010904/DTD/svg10.dtd">
<svg version="1.0" xmlns="http://www.w3.org/2000/svg"
 width="980.000000pt" height="980.000000pt" viewBox="0 0 980.000000 980.000000"
 preserveAspectRatio="xMidYMid meet">
<metadata>
Created by potrace 1.14, written by Peter Selinger 2001-2017
</metadata>
<g transform="translate(0.000000,980.000000) scale(0.100000,-0.100000)"
fill="#000000" stroke="none">
<path d="M0 6650 l0 -1460 285 0 285 0 0 1048 0 1047 28 -30 c23 -26 100 -117
160 -190 10 -11 37 -45 62 -75 74 -90 84 -102 100 -119 9 -9 47 -54 85 -101
38 -47 76 -93 85 -102 18 -21 13 -14 173 -207 72 -86 137 -162 145 -170 7 -8
20 -24 29 -37 8 -13 21 -24 28 -24 7 0 20 11 28 24 9 13 22 29 30 37 12 12
116 137 225 268 20 25 45 53 55 63 9 10 17 20 17 23 0 2 10 15 23 27 12 13 40
46 62 73 22 27 56 68 75 90 19 23 53 63 75 90 22 27 45 53 50 59 6 6 30 36 55
66 25 30 47 57 50 60 3 3 24 27 45 54 22 28 54 65 71 84 l32 35 4 -42 c2 -22
-1 -41 -5 -41 -5 0 -4 -6 2 -14 8 -10 9 -16 1 -21 -6 -3 -8 -10 -6 -14 3 -4 5
-46 5 -92 0 -46 0 -91 1 -99 0 -8 1 -24 3 -35 2 -11 1 -32 -3 -46 -4 -15 -4
-32 0 -39 4 -7 4 -25 0 -40 -4 -15 -4 -33 0 -40 4 -7 4 -25 0 -40 -4 -15 -4
-33 0 -40 4 -7 5 -24 1 -38 -4 -14 -4 -47 -1 -72 3 -26 3 -56 -1 -66 -3 -11
-3 -29 2 -41 5 -13 5 -23 0 -23 -4 0 -5 -20 -1 -45 4 -24 4 -49 0 -55 -4 -6
-4 -31 0 -55 4 -27 3 -45 -3 -45 -5 0 -4 -6 2 -14 8 -10 9 -16 1 -21 -6 -3 -8
-10 -6 -14 3 -4 5 -46 5 -92 0 -46 0 -91 1 -99 0 -8 1 -24 3 -35 2 -11 1 -32
-3 -46 -4 -15 -4 -32 0 -39 4 -7 4 -25 0 -40 -4 -15 -4 -33 0 -40 4 -7 4 -25
0 -40 -4 -15 -4 -33 0 -40 4 -7 5 -24 1 -38 -4 -14 -4 -47 -1 -72 3 -26 3 -56
-1 -66 -3 -11 -3 -29 2 -41 5 -13 5 -23 0 -23 -4 0 -5 -20 -1 -45 4 -24 4 -49
0 -55 -3 -6 -3 -33 0 -61 4 -27 4 -52 0 -54 -3 -2 -4 -20 -2 -39 l4 -36 284 0
284 0 0 1460 0 1460 -285 0 -284 0 -52 -62 c-29 -35 -55 -65 -58 -68 -4 -3
-36 -41 -71 -85 -36 -44 -67 -82 -70 -85 -3 -3 -28 -32 -55 -65 -28 -33 -54
-65 -60 -71 -5 -6 -19 -22 -30 -35 -11 -14 -65 -78 -120 -144 -55 -66 -107
-128 -115 -138 -8 -11 -20 -24 -25 -31 -6 -6 -33 -38 -60 -71 -28 -33 -55 -65
-60 -71 -6 -6 -33 -39 -60 -73 -28 -33 -55 -61 -61 -61 -7 0 -19 10 -27 23 -9
12 -31 40 -51 62 -19 22 -39 45 -43 50 -4 6 -42 51 -83 100 -41 49 -82 98 -90
108 -8 10 -23 28 -33 40 -11 12 -33 39 -50 60 -44 53 -64 77 -95 112 -15 17
-43 50 -62 75 -19 25 -41 52 -50 60 -13 12 -88 102 -170 203 -23 29 -41 50
-94 111 l-48 56 -284 0 -284 0 0 -1460z"/>
<path d="M3439 8103 c-4 -46 -1 -202 5 -211 4 -7 4 -17 0 -24 -9 -14 -11 -198
-3 -198 4 0 4 -15 0 -32 -5 -30 -6 -43 -2 -85 1 -10 217 -13 1026 -15 l1024
-3 -190 -165 c-105 -91 -203 -175 -217 -188 -15 -13 -49 -43 -77 -67 -27 -24
-61 -54 -75 -65 -14 -12 -38 -33 -55 -48 -16 -15 -118 -103 -225 -196 -107
-93 -197 -172 -200 -175 -3 -3 -52 -46 -110 -96 -58 -49 -112 -96 -121 -105
-9 -8 -40 -35 -70 -60 -29 -25 -61 -52 -69 -60 -9 -8 -45 -40 -80 -70 -36 -30
-72 -62 -80 -70 -9 -8 -79 -69 -155 -135 -76 -66 -149 -129 -161 -140 -12 -11
-41 -36 -65 -57 -113 -94 -101 -70 -103 -213 0 -70 2 -129 7 -132 4 -2 4 -9 0
-15 -9 -15 -10 -139 -1 -144 4 -3 4 -15 0 -27 -6 -19 -7 -58 -3 -105 1 -10
297 -12 1462 -10 l1462 3 0 277 c-1 152 -4 281 -7 287 -4 7 -15 7 -30 1 -13
-5 -26 -6 -29 -3 -8 8 -677 9 -677 1 0 -4 -7 -5 -14 -2 -24 9 -946 10 -946 1
0 -5 -5 -5 -11 -1 -6 3 -76 6 -155 6 -134 -1 -165 5 -130 25 7 4 34 26 58 48
25 22 71 63 103 90 32 28 70 61 85 75 15 14 51 45 79 70 29 25 67 59 85 75 18
17 61 55 96 85 35 30 68 59 74 65 6 6 78 69 161 140 82 72 157 137 166 145 16
16 37 34 159 140 41 36 82 72 90 80 8 9 47 43 85 76 103 88 137 117 160 139
12 11 53 47 91 80 38 32 76 66 85 75 9 8 31 28 50 44 19 16 68 59 109 95 41
36 80 70 87 76 6 5 37 33 70 62 32 28 69 61 82 72 l23 20 2 286 1 285 -1462 0
c-805 0 -1463 -3 -1464 -7z"/>
<path d="M6879 8108 c0 -4 0 -2867 0 -2895 l1 -23 1460 0 1460 0 0 840 0 840
-772 -2 -773 -3 -1 -237 -1 -238 36 0 c20 -1 241 -2 491 -3 l455 -2 2 -50 c3
-47 3 -65 -1 -158 0 -22 2 -41 7 -44 4 -2 4 -9 1 -15 -9 -15 -11 -208 -2 -208
4 0 5 -7 1 -16 -3 -8 -6 -41 -7 -72 l-1 -57 -312 -1 c-172 -1 -319 -4 -327 -7
-9 -4 -17 -3 -20 1 -4 7 -111 8 -141 2 -6 -1 -14 -2 -20 -1 -5 1 -224 3 -485
4 l-475 2 0 885 0 885 1173 3 1172 2 0 285 0 285 -1460 0 c-803 0 -1460 -1
-1461 -2z"/>
<path d="M81 4620 l-74 -5 0 -278 c0 -153 3 -281 7 -284 3 -3 463 -5 1021 -5
627 1 1015 -2 1015 -8 0 -5 -6 -13 -14 -17 -8 -4 -40 -31 -72 -60 -33 -28 -68
-60 -80 -70 -68 -59 -149 -129 -158 -138 -6 -5 -43 -37 -81 -69 -39 -33 -82
-71 -97 -85 -15 -14 -33 -30 -40 -36 -13 -10 -134 -115 -193 -167 -16 -14 -39
-35 -51 -45 -74 -63 -164 -142 -274 -238 -70 -60 -152 -132 -184 -160 -32 -27
-68 -59 -81 -70 -12 -11 -46 -41 -76 -66 -125 -107 -145 -125 -172 -151 -16
-16 -32 -28 -37 -28 -5 0 -10 -4 -12 -9 -1 -4 -39 -39 -83 -77 -44 -38 -91
-79 -105 -91 -14 -12 -34 -30 -46 -40 -11 -10 -47 -41 -80 -70 -32 -28 -70
-60 -83 -70 l-23 -19 0 -277 c-1 -153 2 -280 5 -284 7 -7 2905 -8 2912 -1 7 6
8 558 2 565 -3 2 -456 5 -1006 5 -551 0 -1001 2 -1001 5 0 5 87 83 265 238
121 105 180 157 190 169 6 7 20 19 33 28 12 8 42 33 65 54 23 22 73 66 111 99
39 33 84 74 102 90 18 17 58 53 90 80 32 28 68 59 80 70 12 11 41 36 64 55 24
19 54 46 69 60 14 14 82 74 151 134 139 121 255 223 280 246 8 8 45 40 80 70
36 30 74 64 86 75 11 11 42 38 68 60 26 22 57 49 69 61 12 11 56 49 97 85 41
35 82 72 92 82 17 16 18 41 19 298 1 154 -1 283 -4 286 -7 6 -2747 10 -2846 3z"/>
<path d="M7008 4612 c-92 -2 -128 -6 -129 -15 -1 -18 -1 -508 0 -540 1 -24 4
-26 20 -18 10 6 21 7 25 4 3 -4 25 -6 49 -5 63 4 120 2 129 -4 4 -3 8 0 8 6 0
6 5 8 11 4 14 -8 1093 -9 1107 0 6 3 13 3 15 -1 6 -9 161 -8 177 2 5 3 10 3
10 -2 0 -9 122 -8 145 1 8 3 15 2 15 -2 0 -4 34 -7 75 -7 41 0 75 3 75 7 0 4
10 4 23 0 18 -7 100 -8 133 -1 5 1 15 1 22 0 11 -1 11 -3 0 -14 -14 -13 -139
-123 -248 -217 -35 -30 -74 -64 -86 -75 -12 -11 -41 -36 -64 -55 -23 -19 -52
-44 -64 -55 -29 -26 -101 -89 -167 -146 -30 -26 -79 -68 -109 -95 -30 -26 -63
-55 -74 -64 -10 -8 -26 -22 -35 -30 -9 -9 -47 -43 -86 -75 -38 -33 -82 -71
-97 -85 -15 -14 -48 -43 -74 -65 -26 -22 -52 -44 -58 -50 -6 -5 -45 -39 -86
-75 -41 -36 -80 -69 -86 -75 -6 -5 -35 -30 -64 -55 -29 -25 -65 -56 -80 -70
-15 -14 -54 -47 -86 -75 -32 -27 -77 -66 -99 -86 -22 -20 -53 -47 -70 -61 -44
-37 -138 -120 -151 -132 -6 -6 -28 -25 -50 -43 -21 -17 -54 -45 -73 -62 l-34
-30 1 -263 c0 -145 1 -271 1 -280 1 -17 77 -18 1461 -18 l1460 0 0 285 0 285
-1005 0 c-553 0 -1005 3 -1005 6 0 7 14 20 103 97 27 23 59 51 71 62 13 11 54
47 91 80 38 33 76 67 85 75 9 8 45 40 80 70 36 30 67 58 70 61 3 3 28 25 55
49 57 49 181 158 205 180 9 8 45 40 80 70 35 30 71 62 80 70 13 13 69 62 156
137 58 50 138 121 162 143 15 14 51 45 81 70 29 25 73 63 96 85 24 22 54 49
67 59 13 11 75 65 138 121 63 56 126 110 139 121 13 10 31 26 40 34 9 9 54 49
101 90 46 41 90 80 97 87 10 9 13 79 13 297 0 157 -3 286 -7 286 -77 2 -2695
4 -2785 2z"/>
<path d="M3439 4593 c-4 -132 -2 -363 3 -363 4 0 5 -6 2 -14 -9 -23 -11 -145
-2 -159 6 -9 243 -12 1075 -13 754 -1 1080 -4 1108 -12 47 -13 115 -72 140
-122 25 -47 27 -131 7 -187 -22 -60 -96 -127 -156 -142 -32 -8 -353 -11 -1110
-11 -586 0 -1066 -3 -1067 -7 -5 -44 -2 -146 4 -150 4 -2 4 -9 0 -15 -9 -16
-10 -139 0 -145 4 -2 4 -9 0 -15 -9 -15 -10 -139 -1 -144 4 -3 4 -15 0 -27 -4
-12 -7 -42 -6 -67 1 -25 3 -56 3 -70 1 -14 1 -160 0 -326 -1 -165 1 -306 5
-312 3 -6 3 -13 -1 -15 -9 -6 -9 -134 0 -143 3 -3 3 -16 -1 -28 -4 -11 -7 -41
-6 -66 1 -25 3 -56 3 -70 1 -14 1 -79 0 -145 0 -66 0 -123 0 -127 1 -5 132 -8
291 -8 l290 0 0 33 c3 216 -1 1210 -4 1215 -2 4 -1 15 3 25 6 16 9 16 35 -5
16 -13 37 -30 46 -38 9 -8 47 -42 85 -75 39 -32 77 -66 86 -75 9 -8 42 -37 74
-65 32 -27 63 -55 69 -60 6 -6 63 -55 126 -109 63 -55 120 -104 125 -110 6 -6
39 -36 75 -66 36 -30 67 -57 70 -60 3 -3 55 -48 115 -100 109 -94 158 -136
179 -155 6 -5 45 -39 86 -75 41 -36 80 -69 86 -75 6 -5 33 -29 61 -52 27 -24
61 -53 75 -65 14 -13 41 -38 61 -55 l36 -33 421 0 c273 0 420 3 420 10 0 6 -4
10 -9 10 -4 0 -21 12 -37 28 -16 15 -54 47 -84 72 -55 45 -103 86 -124 105 -6
6 -51 44 -101 85 -49 41 -101 84 -115 96 -42 36 -170 145 -265 224 -50 41 -92
77 -95 80 -8 8 -179 153 -355 300 -88 73 -164 138 -170 144 -5 6 -30 27 -55
47 -25 20 -61 50 -79 67 l-35 30 445 1 c244 0 453 2 464 4 11 3 42 8 69 12 27
3 56 10 65 15 9 4 40 17 68 29 97 37 207 123 281 218 74 95 140 270 138 367
-1 25 1 46 4 46 4 0 5 203 1 220 -1 3 -3 34 -5 70 -8 154 -81 314 -192 424
-101 101 -201 159 -334 195 -73 20 -105 20 -1232 21 -1098 0 -1158 -1 -1159
-17z"/>
</g>
</svg>
